<?xml version="1.0" standalone="no"?>
<!DOCTYPE svg PUBLIC "-//W3C//DTD SVG 20010904//EN"
 "http://www.w3.org/TR/2001/REC-SVG-20010904/DTD/svg10.dtd">
<svg version="1.0" xmlns="http://www.w3.org/2000/svg"
 width="512.000000pt" height="512.000000pt" viewBox="0 0 512.000000 512.000000"
 preserveAspectRatio="xMidYMid meet" >

<g transform="translate(0.000000,512.000000) scale(0.100000,-0.100000)"
fill="#6b5ab8" stroke="none">
<path d="M1530 4346 l-1025 -593 0 -1194 0 -1193 1027 -593 1028 -594 1028
594 1027 593 0 1193 0 1194 -1028 593 c-566 327 -1029 594 -1030 593 -1 0
-463 -267 -1027 -593z m171 -486 c223 -46 517 -165 782 -317 l77 -45 78 45
c42 24 122 67 177 95 712 356 1232 327 1315 -73 45 -215 -105 -579 -379 -917
l-70 -88 69 -86 c164 -205 304 -452 356 -629 30 -102 38 -260 17 -330 -63
-206 -269 -308 -561 -277 -126 13 -298 55 -437 107 -114 42 -373 165 -487 231
l-78 45 -77 -45 c-115 -66 -374 -189 -488 -231 -139 -52 -311 -94 -437 -107
-244 -26 -431 40 -516 182 -47 78 -57 122 -55 235 0 76 7 122 27 190 52 177
192 424 356 629 l69 86 -70 88 c-219 271 -365 569 -385 784 -21 231 109 400
341 444 90 17 244 11 376 -16z"/>
<path d="M1319 3717 c-67 -19 -110 -48 -143 -95 -26 -36 -30 -53 -34 -125 -5
-95 10 -166 62 -293 53 -131 187 -344 301 -481 l37 -44 146 143 c204 200 447
399 650 533 40 27 69 52 65 56 -20 20 -298 154 -413 198 -199 79 -340 112
-495 117 -88 3 -145 0 -176 -9z"/>
<path d="M3485 3716 c-181 -35 -398 -114 -621 -227 -77 -39 -142 -74 -147 -78
-4 -4 39 -38 95 -77 210 -141 401 -299 614 -507 l152 -148 37 45 c114 136 248
349 301 480 52 127 67 198 62 293 -6 107 -34 154 -122 198 -55 27 -69 29 -180
32 -71 1 -150 -3 -191 -11z"/>
<path d="M2439 3239 c-253 -173 -470 -353 -668 -552 l-124 -125 52 -60 c55
-63 270 -262 386 -358 96 -78 271 -208 383 -283 l92 -62 93 62 c111 75 286
205 382 283 116 96 331 295 386 358 l52 60 -124 125 c-198 199 -415 379 -668
552 -57 39 -112 71 -121 71 -9 0 -64 -32 -121 -71z m252 -391 c69 -32 125 -88
158 -158 22 -46 26 -69 25 -135 0 -67 -5 -89 -27 -133 -34 -65 -92 -122 -155
-153 -38 -19 -63 -24 -132 -24 -73 0 -92 4 -137 28 -67 35 -116 84 -150 150
-39 75 -39 188 -2 267 77 163 261 232 420 158z"/>
<path d="M1479 2363 c-204 -255 -339 -540 -339 -712 0 -126 36 -189 132 -232
78 -34 246 -38 388 -9 195 39 447 136 664 254 l87 48 -88 60 c-231 160 -426
321 -630 521 l-151 149 -63 -79z"/>
<path d="M3425 2291 c-202 -198 -397 -359 -628 -519 l-88 -60 87 -48 c217
-118 469 -215 664 -254 82 -17 130 -21 220 -18 133 5 200 27 250 84 126 144
13 500 -276 871 -36 45 -68 84 -72 87 -4 2 -75 -62 -157 -143z"/>
</g>
</svg>
